# xmcd CD database file
#
# Track frame offsets:
#	187
#	12000
#	30075
#	44327
#	58212
#	74107
#	87837
#	102090
#	112197
#	123910
#	134257
#	150380
#	167160
#	178627
#	191232
#	205137
#	222072
#	234007
#	245965
#	259055
#
# Disc length: 3639 seconds
#
# Revision: 5
# Processed by: cddbd v1.5.2PL0 Copyright (c) Steve Scherf et al.
# Submitted via: CDex 1.70beta2
#
DISCID=160e3514
DTITLE=ポール・モーリア - スタンダード・ベスト
DYEAR=1993
DGENRE=Fusion
TTITLE0=恋はみずいろ
TTITLE1=エーゲ海の真珠
TTITLE2=シバの女王
TTITLE3=ある愛の詩
TTITLE4=メモリー
TTITLE5=悲しき天使
TTITLE6=ミセス・ロビンソン
TTITLE7=エリナ・リグビー
TTITLE8=輝く星座
TTITLE9=ガール
TTITLE10=ジス・ガイ
TTITLE11=アンチェインド・メロディ
TTITLE12=雨
TTITLE13=この胸のときめきを
TTITLE14=小さな願い
TTITLE15=涙のカノン
TTITLE16=再開
TTITLE17=愛の休日
TTITLE18=インシャラー
TTITLE19=サウンド・オブ・サイレンス
EXTD=YEAR: 1993
EXTT0=
EXTT1=
EXTT2=
EXTT3=
EXTT4=
EXTT5=
EXTT6=
EXTT7=
EXTT8=
EXTT9=
EXTT10=
EXTT11=
EXTT12=
EXTT13=
EXTT14=
EXTT15=
EXTT16=
EXTT17=
EXTT18=
EXTT19=
PLAYORDER=
